# xmcd
#
# Track frame offsets: 
#        150
#        12877
#        26224
#        42215
#        60967
#        75937
#        92470
#        106605
#        117968
#        134079
#
# Disc length: 1938 seconds
#
# Revision: 0
# Processed by: cddbd v1.5.1PL0 Copyright (c) Steve Scherf et al.
# Submitted via: ExactAudioCopy v0.90b4
#
DISCID=6d07900a
DTITLE=The Jane Waynes - Cowboy Songs
DYEAR=2004
DGENRE=Country
TTITLE0=Cowboy Song
TTITLE1=Women's Prison
TTITLE2=Sasparilla
TTITLE3=Break My Heart
TTITLE4=Nashville
TTITLE5=Four In My Ever
TTITLE6=Jesus
TTITLE7=Sad And Lonesome
TTITLE8=Pillow
TTITLE9=Saskatchewan
EXTD=
EXTT0=
EXTT1=
EXTT2=
EXTT3=
EXTT4=
EXTT5=
EXTT6=
EXTT7=
EXTT8=
EXTT9=
PLAYORDER=
